Jump_normalized_precision_landing09_filtered_grf
version=1
nRows=25
nColumns=37
inDegrees=yes
endheader
time		1_ground_force_vx		1_ground_force_vy		1_ground_force_vz		1_ground_force_px		1_ground_force_py		1_ground_force_pz		1_ground_torque_x		1_ground_torque_y		1_ground_torque_z		2_ground_force_vx		2_ground_force_vy		2_ground_force_vz		2_ground_force_px		2_ground_force_py		2_ground_force_pz		2_ground_torque_x		2_ground_torque_y		2_ground_torque_z		3_ground_force_vx		3_ground_force_vy		3_ground_force_vz		3_ground_force_px		3_ground_force_py		3_ground_force_pz		3_ground_torque_x		3_ground_torque_y		3_ground_torque_z		4_ground_force_vx		4_ground_force_vy		4_ground_force_vz		4_ground_force_px		4_ground_force_py		4_ground_force_pz		4_ground_torque_x		4_ground_torque_y		4_ground_torque_z		
0.542000		0.000000		-0.000000		-0.000000		0.092013		0.000000		0.304222		-0.000000		-0.000000		0.000000		-0.000000		-0.000000		-0.000000		-0.191147		0.000000		0.315249		-0.000000		0.000000		-0.000000		-52.523452		454.598949		89.855383		0.381898		1.273935		1.880161		2.944349		-25.483818		-5.037095		83.809880		597.755451		98.797487		-0.352236		1.266972		1.870870		3.822616		27.263965		4.506209		
0.545359		-0.000000		0.000000		0.000000		0.092013		0.000000		0.304222		0.000000		0.000000		-0.000000		-0.000000		-0.000000		-0.000000		-0.191147		0.000000		0.315249		-0.000000		0.000000		-0.000000		-52.509087		456.594819		89.299389		0.381902		1.273915		1.880201		2.947162		-25.627166		-5.012081		84.279140		600.060711		97.627445		-0.352233		1.266992		1.870949		3.851305		27.420982		4.461282		
0.548717		-0.000000		0.000000		0.000000		0.092013		0.000000		0.304222		0.000000		0.000000		-0.000000		0.000000		0.000000		0.000000		-0.191147		0.000000		0.315249		0.000000		-0.000000		0.000000		-52.516924		458.437879		88.826033		0.381906		1.273903		1.880236		2.952014		-25.769123		-4.992974		84.706184		601.705596		96.393390		-0.352235		1.267004		1.871027		3.878614		27.551514		4.413759		
0.552076		-0.000000		0.000000		0.000000		0.092013		0.000000		0.304222		0.000000		0.000000		-0.000000		0.000000		0.000000		0.000000		-0.191147		0.000000		0.315249		0.000000		-0.000000		0.000000		-52.707404		460.212143		88.512631		0.381916		1.273899		1.880269		2.967211		-25.908057		-4.982898		85.075794		602.746198		95.082880		-0.352247		1.267011		1.871099		3.903021		27.652183		4.362117		
0.555434		-0.000000		0.000000		0.000000		0.092013		0.000000		0.304222		0.000000		0.000000		-0.000000		0.000000		0.000000		0.000000		-0.191147		0.000000		0.315249		0.000000		-0.000000		0.000000		-53.153798		461.995341		88.375616		0.381933		1.273900		1.880298		2.996063		-26.040796		-4.981374		85.380183		603.289805		93.713103		-0.352272		1.267017		1.871162		3.923629		27.724059		4.306566		
0.558793		0.000000		0.000000		0.000000		0.092013		0.000000		0.304222		0.000000		0.000000		-0.000000		0.000000		0.000000		0.000000		-0.191147		0.000000		0.315249		0.000000		-0.000000		0.000000		-53.800252		463.821811		88.359110		0.381953		1.273903		1.880330		3.034785		-26.163435		-4.984194		85.626573		603.475188		92.316641		-0.352302		1.267028		1.871221		3.940775		27.773621		4.248670		
0.562152		0.000000		-0.000000		-0.000000		0.092013		0.000000		0.304222		-0.000000		-0.000000		0.000000		-0.000000		0.000000		0.000000		-0.191147		0.000000		0.315249		0.000000		-0.000000		0.000000		-54.498108		465.654275		88.366520		0.381972		1.273903		1.880366		3.074777		-26.272168		-4.985630		85.829656		603.451754		90.939176		-0.352328		1.267048		1.871280		3.955611		27.811132		4.191091		
0.565510		0.000000		-0.000000		-0.000000		0.092013		0.000000		0.304222		-0.000000		-0.000000		0.000000		-0.000000		-0.000000		-0.000000		-0.191147		0.000000		0.315249		-0.000000		0.000000		-0.000000		-55.083556		467.389236		88.296171		0.381983		1.273898		1.880407		3.107131		-26.364302		-4.980574		85.997793		603.358958		89.622866		-0.352341		1.267074		1.871341		3.969115		27.847241		4.136426		
0.568869		0.000000		-0.000000		-0.000000		0.092013		0.000000		0.304222		-0.000000		-0.000000		0.000000		-0.000000		-0.000000		-0.000000		-0.191147		0.000000		0.315249		-0.000000		0.000000		-0.000000		-55.454022		468.895507		88.060911		0.381982		1.273892		1.880457		3.126886		-26.439610		-4.965490		86.115066		603.309600		88.400732		-0.352335		1.267098		1.871407		3.980902		27.889620		4.086563		
0.572227		0.000000		-0.000000		-0.000000		0.092013		0.000000		0.304222		-0.000000		-0.000000		0.000000		-0.000000		-0.000000		-0.000000		-0.191147		0.000000		0.315249		-0.000000		0.000000		-0.000000		-55.604605		470.080360		87.609657		0.381966		1.273888		1.880514		3.134795		-26.501502		-4.939129		86.144321		603.379606		87.278726		-0.352313		1.267111		1.871475		3.989097		27.940787		4.041628		
0.575586		-0.000000		0.000000		-0.000000		0.092013		0.000000		0.304222		-0.000000		-0.000000		0.000000		-0.000000		-0.000000		-0.000000		-0.191147		0.000000		0.315249		-0.000000		0.000000		-0.000000		-55.603442		470.936352		86.953675		0.381932		1.273890		1.880578		3.135447		-26.555836		-4.903269		86.047663		603.614843		86.240294		-0.352282		1.267104		1.871540		3.991360		27.998950		4.000295		
0.578944		-0.000000		0.000000		0.000000		0.092013		0.000000		0.304222		0.000000		0.000000		-0.000000		0.000000		-0.000000		-0.000000		-0.191147		0.000000		0.315249		-0.000000		0.000000		-0.000000		-55.562341		471.566543		86.123796		0.381886		1.273902		1.880644		3.135317		-26.609937		-4.859863		85.811663		604.056470		85.253103		-0.352253		1.267079		1.871600		3.986397		28.061555		3.960449		
0.582303		-0.000000		0.000000		0.000000		0.092013		0.000000		0.304222		0.000000		0.000000		-0.000000		0.000000		0.000000		0.000000		-0.191147		0.000000		0.315249		0.000000		-0.000000		0.000000		-55.590465		472.157721		85.180196		0.381834		1.273922		1.880712		3.140213		-26.671403		-4.811687		85.460354		604.768344		84.292879		-0.352231		1.267039		1.871655		3.974966		28.129224		3.920663		
0.585662		-0.000000		0.000000		0.000000		0.092013		0.000000		0.304222		0.000000		0.000000		-0.000000		0.000000		0.000000		0.000000		-0.191147		0.000000		0.315249		0.000000		-0.000000		0.000000		-55.764787		472.919194		84.181029		0.381788		1.273947		1.880781		3.153979		-26.747653		-4.761162		85.042696		605.850540		83.367903		-0.352220		1.266994		1.871703		3.959429		28.207271		3.881454		
0.589020		-0.000000		0.000000		0.000000		0.092013		0.000000		0.304222		0.000000		0.000000		-0.000000		0.000000		0.000000		0.000000		-0.191147		0.000000		0.315249		0.000000		-0.000000		0.000000		-56.117891		474.013588		83.193651		0.381752		1.273973		1.880847		3.178132		-26.844876		-4.711518		84.615211		607.437809		82.478236		-0.352217		1.266950		1.871747		3.942754		28.304343		3.843179		
0.592379		0.000000		-0.000000		0.000000		0.092013		0.000000		0.304222		-0.000000		-0.000000		0.000000		0.000000		0.000000		0.000000		-0.191147		0.000000		0.315249		0.000000		-0.000000		0.000000		-56.634393		475.524251		82.268420		0.381727		1.273996		1.880908		3.211683		-26.966530		-4.665364		84.217103		609.663730		81.619114		-0.352220		1.266914		1.871788		3.927137		28.429300		3.805990		
0.595737		0.000000		-0.000000		-0.000000		0.092013		0.000000		0.304222		-0.000000		-0.000000		0.000000		-0.000000		-0.000000		0.000000		-0.191147		0.000000		0.315249		0.000000		-0.000000		-0.000000		-57.268877		477.437545		81.416641		0.381711		1.274014		1.880958		3.252028		-27.111415		-4.623265		83.849593		612.597866		80.754942		-0.352224		1.266890		1.871821		3.913003		28.588060		3.768584		
0.599096		0.000000		-0.000000		-0.000000		0.092013		0.000000		0.304222		-0.000000		-0.000000		0.000000		-0.000000		-0.000000		-0.000000		-0.191147		0.000000		0.315249		-0.000000		0.000000		-0.000000		-57.967564		479.658381		80.642575		0.381701		1.274025		1.880998		3.296061		-27.273582		-4.585372		83.472943		616.206415		79.837674		-0.352227		1.266874		1.871850		3.898925		28.782290		3.729126		
0.602455		0.000000		-0.000000		-0.000000		0.092013		0.000000		0.304222		-0.000000		-0.000000		0.000000		-0.000000		-0.000000		-0.000000		-0.191147		0.000000		0.315249		-0.000000		0.000000		-0.000000		-58.678421		482.056450		79.927948		0.381695		1.274031		1.881030		3.340608		-27.443840		-4.550359		83.014657		620.336539		78.804424		-0.352227		1.266860		1.871871		3.882033		29.008934		3.685148		
0.605813		0.000000		-0.000000		-0.000000		0.092013		0.000000		0.304222		-0.000000		-0.000000		0.000000		-0.000000		-0.000000		-0.000000		-0.191147		0.000000		0.315249		-0.000000		0.000000		-0.000000		-59.352900		484.514284		79.256848		0.381699		1.274031		1.881059		3.382467		-27.612025		-4.516775		82.398109		624.728868		77.567404		-0.352218		1.266846		1.871885		3.859179		29.259663		3.632929		
0.609172		-0.000000		0.000000		0.000000		0.092013		0.000000		0.304222		0.000000		0.000000		-0.000000		-0.000000		-0.000000		-0.000000		-0.191147		0.000000		0.315249		-0.000000		0.000000		-0.000000		-59.945807		486.963646		78.602488		0.381713		1.274027		1.881091		3.418570		-27.770407		-4.482517		81.571922		629.061626		76.064228		-0.352197		1.266829		1.871900		3.828004		29.520586		3.569539		
0.612530		-0.000000		0.000000		0.000000		0.092013		0.000000		0.304222		0.000000		0.000000		-0.000000		0.000000		0.000000		-0.000000		-0.191147		0.000000		0.315249		0.000000		-0.000000		0.000000		-60.430981		489.379491		77.954469		0.381736		1.274023		1.881133		3.447166		-27.915685		-4.446758		80.525985		633.026968		74.234586		-0.352163		1.266809		1.871917		3.787593		29.774839		3.491672		
0.615889		-0.000000		0.000000		0.000000		0.092013		0.000000		0.304222		0.000000		0.000000		-0.000000		0.000000		0.000000		0.000000		-0.191147		0.000000		0.315249		0.000000		-0.000000		0.000000		-60.808426		491.758838		77.318270		0.381766		1.274026		1.881189		3.468465		-28.049539		-4.410174		79.294840		636.391380		72.055267		-0.352114		1.266789		1.871940		3.738808		30.006311		3.397456		
0.619247		-0.000000		0.000000		0.000000		0.092013		0.000000		0.304222		0.000000		0.000000		-0.000000		0.000000		0.000000		0.000000		-0.191147		0.000000		0.315249		0.000000		-0.000000		0.000000		-61.085571		494.094238		76.726622		0.381797		1.274037		1.881253		3.483596		-28.177270		-4.375576		77.944812		639.049743		69.584321		-0.352057		1.266773		1.871970		3.684011		30.204280		3.288857		
0.622606		-0.000000		0.000000		0.000000		0.092013		0.000000		0.304222		0.000000		0.000000		-0.000000		0.000000		0.000000		0.000000		-0.191147		0.000000		0.315249		0.000000		-0.000000		0.000000		-61.277976		496.344437		76.208628		0.381827		1.274059		1.881322		3.494438		-28.304542		-4.345873		76.564445		641.022602		66.927043		-0.351997		1.266760		1.872006		3.626938		30.365919		3.170404		
